{
	"asset":{
		"generator":"Khronos glTF Blender I/O v4.0.44",
		"version":"2.0"
	},
	"scene":0,
	"scenes":[
		{
			"name":"Scene",
			"nodes":[
				0,
				1,
				2,
				3,
				4,
				5
			]
		}
	],
	"nodes":[
		{
			"mesh":0,
			"name":"Body",
			"scale":[
				10,
				10,
				10
			],
			"translation":[
				-8.661614992888644e-05,
				-0.7617733478546143,
				-0.32537785172462463
			]
		},
		{
			"mesh":1,
			"name":"Legs",
			"scale":[
				10,
				10,
				10
			],
			"translation":[
				-8.661614992888644e-05,
				-0.7617733478546143,
				-0.32537785172462463
			]
		},
		{
			"mesh":2,
			"name":"Lenses",
			"scale":[
				10,
				10,
				10
			],
			"translation":[
				0.0002021043183049187,
				1.7774708271026611,
				0.7592149376869202
			]
		},
		{
			"mesh":3,
			"name":"Plane",
			"scale":[
				12.281302452087402,
				12.281302452087402,
				12.281302452087402
			],
			"translation":[
				0,
				-0.7595512866973877,
				0
			]
		},
		{
			"mesh":4,
			"name":"Sphere",
			"translation":[
				3.152614116668701,
				0,
				2.273375988006592
			]
		},
		{
			"mesh":5,
			"name":"Sphere.001",
			"translation":[
				-3.4524426460266113,
				0,
				0
			]
		}
	],
	"materials":[
		{
			"doubleSided":true,
			"name":"Body",
			"pbrMetallicRoughness":{}
		},
		{
			"doubleSided":true,
			"name":"Legs",
			"pbrMetallicRoughness":{}
		},
		{
			"doubleSided":true,
			"name":"Material.003",
			"pbrMetallicRoughness":{
				"baseColorFactor":[
					0.029568705707788467,
					0.030320001766085625,
					0.041291117668151855,
					1
				],
				"metallicFactor":0.8073394894599915,
				"roughnessFactor":0.10000000149011612
			}
		},
		{
			"doubleSided":true,
			"name":"Material.002",
			"pbrMetallicRoughness":{
				"baseColorFactor":[
					0.800000011920929,
					0.800000011920929,
					0.800000011920929,
					1
				],
				"metallicFactor":0,
				"roughnessFactor":0.5
			}
		},
		{
			"doubleSided":true,
			"name":"Material.001",
			"pbrMetallicRoughness":{
				"baseColorFactor":[
					0.800000011920929,
					0.800000011920929,
					0.800000011920929,
					1
				],
				"roughnessFactor":0
			}
		},
		{
			"doubleSided":true,
			"name":"Material",
			"pbrMetallicRoughness":{
				"baseColorFactor":[
					0.800000011920929,
					0.800000011920929,
					0.800000011920929,
					1
				],
				"roughnessFactor":0
			}
		}
	],
	"meshes":[
		{
			"name":"Cube.002",
			"primitives":[
				{
					"attributes":{
						"COLOR_0":0,
						"POSITION":1,
						"NORMAL":2,
						"TEXCOORD_0":3
					},
					"indices":4,
					"material":0
				}
			]
		},
		{
			"name":"Cylinder.009",
			"primitives":[
				{
					"attributes":{
						"COLOR_0":5,
						"POSITION":6,
						"NORMAL":7,
						"TEXCOORD_0":8
					},
					"indices":9,
					"material":1
				}
			]
		},
		{
			"name":"Cylinder.005",
			"primitives":[
				{
					"attributes":{
						"COLOR_0":10,
						"POSITION":11,
						"NORMAL":12,
						"TEXCOORD_0":13
					},
					"indices":14,
					"material":2
				}
			]
		},
		{
			"name":"Plane",
			"primitives":[
				{
					"attributes":{
						"POSITION":15,
						"NORMAL":16,
						"TEXCOORD_0":17
					},
					"indices":18,
					"material":3
				}
			]
		},
		{
			"name":"Sphere",
			"primitives":[
				{
					"attributes":{
						"POSITION":19,
						"NORMAL":20,
						"TEXCOORD_0":21
					},
					"indices":22,
					"material":4
				}
			]
		},
		{
			"name":"Sphere.001",
			"primitives":[
				{
					"attributes":{
						"POSITION":23,
						"NORMAL":24,
						"TEXCOORD_0":25
					},
					"indices":26,
					"material":5
				}
			]
		}
	],
	"accessors":[
		{
			"bufferView":0,
			"componentType":5123,
			"count":19336,
			"normalized":true,
			"type":"VEC4"
		},
		{
			"bufferView":1,
			"componentType":5126,
			"count":19336,
			"max":[
				0.12886019051074982,
				0.5242087841033936,
				0.11861401051282883
			],
			"min":[
				-0.12886017560958862,
				0.011469806544482708,
				-0.12240733206272125
			],
			"type":"VEC3"
		},
		{
			"bufferView":2,
			"componentType":5126,
			"count":19336,
			"type":"VEC3"
		},
		{
			"bufferView":3,
			"componentType":5126,
			"count":19336,
			"type":"VEC2"
		},
		{
			"bufferView":4,
			"componentType":5123,
			"count":108216,
			"type":"SCALAR"
		},
		{
			"bufferView":5,
			"componentType":5123,
			"count":101114,
			"normalized":true,
			"type":"VEC4"
		},
		{
			"bufferView":6,
			"componentType":5126,
			"count":101114,
			"max":[
				0.1867590695619583,
				0.1488877385854721,
				0.18684819340705872
			],
			"min":[
				-0.1867590695619583,
				0.00022913760039955378,
				-0.18684819340705872
			],
			"type":"VEC3"
		},
		{
			"bufferView":7,
			"componentType":5126,
			"count":101114,
			"type":"VEC3"
		},
		{
			"bufferView":8,
			"componentType":5126,
			"count":101114,
			"type":"VEC2"
		},
		{
			"bufferView":9,
			"componentType":5125,
			"count":564528,
			"type":"SCALAR"
		},
		{
			"bufferView":10,
			"componentType":5123,
			"count":582,
			"normalized":true,
			"type":"VEC4"
		},
		{
			"bufferView":11,
			"componentType":5126,
			"count":582,
			"max":[
				0.013538502156734467,
				0.09061786532402039,
				0.013602696359157562
			],
			"min":[
				-0.013776839710772038,
				-0.0135079026222229,
				0.0009152590646408498
			],
			"type":"VEC3"
		},
		{
			"bufferView":12,
			"componentType":5126,
			"count":582,
			"type":"VEC3"
		},
		{
			"bufferView":13,
			"componentType":5126,
			"count":582,
			"type":"VEC2"
		},
		{
			"bufferView":14,
			"componentType":5123,
			"count":2880,
			"type":"SCALAR"
		},
		{
			"bufferView":15,
			"componentType":5126,
			"count":4,
			"max":[
				1,
				0,
				1
			],
			"min":[
				-1,
				0,
				-1
			],
			"type":"VEC3"
		},
		{
			"bufferView":16,
			"componentType":5126,
			"count":4,
			"type":"VEC3"
		},
		{
			"bufferView":17,
			"componentType":5126,
			"count":4,
			"type":"VEC2"
		},
		{
			"bufferView":18,
			"componentType":5123,
			"count":6,
			"type":"SCALAR"
		},
		{
			"bufferView":19,
			"componentType":5126,
			"count":559,
			"max":[
				0.9999997019767761,
				1,
				0.9999993443489075
			],
			"min":[
				-0.9999990463256836,
				-1,
				-1
			],
			"type":"VEC3"
		},
		{
			"bufferView":20,
			"componentType":5126,
			"count":559,
			"type":"VEC3"
		},
		{
			"bufferView":21,
			"componentType":5126,
			"count":559,
			"type":"VEC2"
		},
		{
			"bufferView":22,
			"componentType":5123,
			"count":2880,
			"type":"SCALAR"
		},
		{
			"bufferView":23,
			"componentType":5126,
			"count":559,
			"max":[
				0.9999997019767761,
				1,
				0.9999993443489075
			],
			"min":[
				-0.9999990463256836,
				-1,
				-1
			],
			"type":"VEC3"
		},
		{
			"bufferView":24,
			"componentType":5126,
			"count":559,
			"type":"VEC3"
		},
		{
			"bufferView":25,
			"componentType":5126,
			"count":559,
			"type":"VEC2"
		},
		{
			"bufferView":26,
			"componentType":5123,
			"count":2880,
			"type":"SCALAR"
		}
	],
	"bufferViews":[
		{
			"buffer":0,
			"byteLength":154688,
			"byteOffset":0,
			"target":34962
		},
		{
			"buffer":0,
			"byteLength":232032,
			"byteOffset":154688,
			"target":34962
		},
		{
			"buffer":0,
			"byteLength":232032,
			"byteOffset":386720,
			"target":34962
		},
		{
			"buffer":0,
			"byteLength":154688,
			"byteOffset":618752,
			"target":34962
		},
		{
			"buffer":0,
			"byteLength":216432,
			"byteOffset":773440,
			"target":34963
		},
		{
			"buffer":0,
			"byteLength":808912,
			"byteOffset":989872,
			"target":34962
		},
		{
			"buffer":0,
			"byteLength":1213368,
			"byteOffset":1798784,
			"target":34962
		},
		{
			"buffer":0,
			"byteLength":1213368,
			"byteOffset":3012152,
			"target":34962
		},
		{
			"buffer":0,
			"byteLength":808912,
			"byteOffset":4225520,
			"target":34962
		},
		{
			"buffer":0,
			"byteLength":2258112,
			"byteOffset":5034432,
			"target":34963
		},
		{
			"buffer":0,
			"byteLength":4656,
			"byteOffset":7292544,
			"target":34962
		},
		{
			"buffer":0,
			"byteLength":6984,
			"byteOffset":7297200,
			"target":34962
		},
		{
			"buffer":0,
			"byteLength":6984,
			"byteOffset":7304184,
			"target":34962
		},
		{
			"buffer":0,
			"byteLength":4656,
			"byteOffset":7311168,
			"target":34962
		},
		{
			"buffer":0,
			"byteLength":5760,
			"byteOffset":7315824,
			"target":34963
		},
		{
			"buffer":0,
			"byteLength":48,
			"byteOffset":7321584,
			"target":34962
		},
		{
			"buffer":0,
			"byteLength":48,
			"byteOffset":7321632,
			"target":34962
		},
		{
			"buffer":0,
			"byteLength":32,
			"byteOffset":7321680,
			"target":34962
		},
		{
			"buffer":0,
			"byteLength":12,
			"byteOffset":7321712,
			"target":34963
		},
		{
			"buffer":0,
			"byteLength":6708,
			"byteOffset":7321724,
			"target":34962
		},
		{
			"buffer":0,
			"byteLength":6708,
			"byteOffset":7328432,
			"target":34962
		},
		{
			"buffer":0,
			"byteLength":4472,
			"byteOffset":7335140,
			"target":34962
		},
		{
			"buffer":0,
			"byteLength":5760,
			"byteOffset":7339612,
			"target":34963
		},
		{
			"buffer":0,
			"byteLength":6708,
			"byteOffset":7345372,
			"target":34962
		},
		{
			"buffer":0,
			"byteLength":6708,
			"byteOffset":7352080,
			"target":34962
		},
		{
			"buffer":0,
			"byteLength":4472,
			"byteOffset":7358788,
			"target":34962
		},
		{
			"buffer":0,
			"byteLength":5760,
			"byteOffset":7363260,
			"target":34963
		}
	],
	"buffers":[
		{
			"byteLength":7369020,
			"uri":"spider.bin"
		}
	]
}
